# xmcd CD database file
#
# Track frame offsets:
#	150
#	17960
#	32009
#	48433
#	70725
#	94242
#	109257
#	120437
#	146887
#	172550
#	187174
#	203840
#	217722
#	236131
#	250708
#	275452
#	299369
#
# Disc length: 4386 seconds
#
# Revision: 0
# Processed by: cddbd v1.5.2PL0 Copyright (c) Steve Scherf et al.
# Submitted via: CDex 1.51
#
DISCID=f7112011
DTITLE=Louis Armstrong - The wonderful World of Louis Armstrong and Friends
DYEAR=2007
DGENRE=Jazz
TTITLE0=It Don't Mean a Thing (If It Ain't Got That Swing) - with Duke Ellington
TTITLE1=Dream a Little Dream of Me - with Ella Fitzgerald
TTITLE2=Go Down, Moses - with the Sy Oliver Choir and the All Stars
TTITLE3=Summertime - with Ella Fitzgerald
TTITLE4=Sweet Lorraine - with Oscar Peterson
TTITLE5=My Sweet Hunk O' Trash - with Billie Holiday
TTITLE6=Gone Fishin' - with Bing Crosby
TTITLE7=Cheek to Cheek - with Ella Fitzgerald
TTITLE8=Baby, It's Cold Outside - with Velma Middleton
TTITLE9=You Can't Lose a Broken Heart - with Billie Holiday
TTITLE10=My Bucket's got a hole in it - with Jack Teagarden
TTITLE11=You Rascal You - with Louis Jordan and Tympani Five
TTITLE12=Just One of Thos Things - with Oscar Peterson
TTITLE13=Summer Song - with Dave Brubek
TTITLE14=I Got It Bad (And That Ain't Good) - with Duke Ellington
TTITLE15=Don't Fence Me In - with Velma Middleton
TTITLE16=It Ain't Necesarily So - with Ella Fitzgerald
EXTD=YEAR: 2007
EXTT0=
EXTT1=
EXTT2=
EXTT3=
EXTT4=
EXTT5=
EXTT6=
EXTT7=
EXTT8=
EXTT9=
EXTT10=
EXTT11=
EXTT12=
EXTT13=
EXTT14=
EXTT15=
EXTT16=
PLAYORDER=
